<?xml version="1.0" encoding="UTF-8"?>
<svg version="1.1" xmlns="http://www.w3.org/2000/svg" width="2000" height="2000">
<path d="M0 0 C0.66 0.33 1.32 0.66 2 1 C1.53851562 2.02319336 1.07703125 3.04638672 0.6015625 4.10058594 C-7.64179591 22.3814139 -15.87155468 40.66773971 -24 59 C-30.00153687 72.53501335 -36.06063267 86.04327895 -42.14550781 99.54101562 C-47.46595086 111.34503872 -52.75165453 123.16375129 -58 135 C-64.00158935 148.53499013 -70.06063254 162.04327866 -76.14550781 175.54101562 C-81.79559125 188.07638435 -87.40199442 200.63032072 -92.97546387 213.19992065 C-98.35938828 225.33932103 -103.79364172 237.45549592 -109.25 249.5625 C-114.68576903 261.62428379 -120.10214875 273.69370134 -125.46508789 285.78808594 C-129.68642241 295.30496275 -133.93437158 304.80980207 -138.1875 314.3125 C-138.54707794 315.11592834 -138.90665588 315.91935669 -139.27713013 316.74713135 C-141.11603722 320.85575909 -142.95518065 324.96428098 -144.79443359 329.07275391 C-146.95351129 333.89584049 -149.11168468 338.71933126 -151.26953125 343.54296875 C-151.61878662 344.32368744 -151.96804199 345.10440613 -152.32788086 345.90878296 C-153.74001818 349.06550981 -155.1521123 352.22225599 -156.56414795 355.37902832 C-160.07820083 363.235106 -163.59247522 371.09108221 -167.11051941 378.94537354 C-168.84491032 382.81757113 -170.57883681 386.68997654 -172.3125 390.5625 C-172.65862335 391.33563538 -173.0047467 392.10877075 -173.36135864 392.90533447 C-178.8182871 405.09726854 -184.24672165 417.30170732 -189.66595459 429.51043701 C-197.20363639 446.49147766 -204.78529635 463.45175933 -212.41943359 480.38964844 C-219.25944976 495.56603429 -226.05961368 510.76006723 -232.85171509 525.95794678 C-235.27886644 531.38844371 -237.70900147 536.81759804 -240.140625 542.24609375 C-247.34095322 558.32308089 -254.51908818 574.40960482 -261.66595459 590.51043701 C-269.20363639 607.49147766 -276.78529635 624.45175933 -284.41943359 641.38964844 C-291.25944976 656.56603429 -298.05961368 671.76006723 -304.85171509 686.95794678 C-307.27886644 692.38844371 -309.70900147 697.81759804 -312.140625 703.24609375 C-319.34095322 719.32308089 -326.51908818 735.40960482 -333.66595459 751.51043701 C-341.20363639 768.49147766 -348.78529635 785.45175933 -356.41943359 802.38964844 C-361.48419689 813.62716602 -366.53119761 824.87246124 -371.5625 836.125 C-371.90963043 836.90118683 -372.25676086 837.67737366 -372.6144104 838.4770813 C-376.19128197 846.47511641 -379.76559328 854.47429063 -383.33680725 862.47485352 C-387.57439516 871.96788161 -391.82036676 881.45710355 -396.0769043 890.94165039 C-396.95164183 892.89216934 -397.82470854 894.84342674 -398.69726562 896.79492188 C-417.74117146 939.31761574 -417.74117146 939.31761574 -439.87890625 948.21875 C-440.92884766 948.60546875 -440.92884766 948.60546875 -442 949 C-443.7634375 949.6496875 -443.7634375 949.6496875 -445.5625 950.3125 C-460.99602006 953.67425684 -477.85213714 947.87089536 -491.05859375 940.234375 C-499.31229015 933.96463484 -504.78128872 926.83403108 -509.75 917.8125 C-510.96147125 915.67534553 -512.17372819 913.53863627 -513.38671875 911.40234375 C-513.98919434 910.33097168 -514.59166992 909.25959961 -515.21240234 908.15576172 C-517.93081097 903.35677921 -520.74438997 898.6158897 -523.5625 893.875 C-524.64089781 892.05354691 -525.71902327 890.23193254 -526.796875 888.41015625 C-527.32732422 887.51441895 -527.85777344 886.61868164 -528.40429688 885.69580078 C-530.51215512 882.13475875 -532.61628114 878.57151833 -534.72045898 875.00830078 C-540.13854344 865.8338661 -545.56682983 856.66550782 -551 847.5 C-557.48386001 836.56202683 -563.95732388 825.61796327 -570.42333984 814.66943359 C-573.11481413 810.11251506 -575.80747679 805.55629881 -578.5 801 C-579.58333881 799.16666991 -580.66667215 797.33333658 -581.75 795.5 C-582.554375 794.13875 -582.554375 794.13875 -583.375 792.75 C-588.24999999 784.50000001 -588.24999999 784.50000001 -589.87426758 781.7512207 C-590.96002039 779.9138054 -592.04579521 778.07640311 -593.1315918 776.23901367 C-595.80308561 771.71823958 -598.47422455 767.19725666 -601.14453125 762.67578125 C-607.08837188 752.61244711 -613.04020729 742.55389578 -619 732.5 C-625.48386001 721.56202683 -631.95732388 710.61796327 -638.42333984 699.66943359 C-641.11481413 695.11251506 -643.80747679 690.55629881 -646.5 686 C-647.58333881 684.16666991 -648.66667215 682.33333658 -649.75 680.5 C-650.554375 679.13875 -650.554375 679.13875 -651.375 677.75 C-657.33333333 667.66666667 -663.29166667 657.58333333 -669.25 647.5 C-669.78616943 646.5927417 -670.32233887 645.6854834 -670.87475586 644.75073242 C-671.95927582 642.91517791 -673.0434223 641.07940268 -674.12719727 639.2434082 C-676.81437447 634.69218582 -679.50768434 630.1448376 -682.21484375 625.60546875 C-688.542266 614.97816419 -694.68740475 604.26692455 -700.69897461 593.45776367 C-704.71383226 586.25344493 -708.82358588 579.1117433 -713 572 C-718.31848788 562.93821453 -723.49871238 553.8080707 -728.61376953 544.63012695 C-732.98751785 536.78902812 -737.41512992 528.97984057 -741.875 521.1875 C-742.37404846 520.31531326 -742.37404846 520.31531326 -742.88317871 519.42550659 C-745.25389051 515.2827758 -747.62668456 511.14123961 -750 507 C-752.70977867 502.27165982 -755.4184702 497.54270072 -758.125 492.8125 C-758.45737671 492.23176727 -758.78975342 491.65103455 -759.13220215 491.05270386 C-763.84634403 482.81270382 -768.50357591 474.54235173 -773.125 466.25 C-777.63775171 458.15278675 -782.24138697 450.11720806 -786.9375 442.125 C-792.57878732 432.52422129 -798.01212268 422.82048376 -803.39208984 413.07128906 C-808.07243587 404.61248188 -812.90186334 396.2516336 -817.80078125 387.91796875 C-822.56693713 379.79188766 -827.17197811 371.58240211 -831.75244141 363.35058594 C-835.72836202 356.22341294 -839.80183349 349.1605136 -843.9375 342.125 C-849.62145144 332.44918662 -855.10790608 322.67443432 -860.53710938 312.85375977 C-865.73152896 303.46213589 -871.03018725 294.13488554 -876.37646484 284.82910156 C-879.50928363 279.36998817 -882.62840166 273.90303436 -885.75 268.4375 C-887.11705798 266.04419682 -888.48424916 263.65096979 -889.8515625 261.2578125 C-890.19368271 260.65900269 -890.53580292 260.06019287 -890.88829041 259.4432373 C-892.94654745 255.84140088 -895.00703404 252.24085086 -897.06941223 248.64137268 C-898.75534717 245.69883808 -900.44036051 242.75577642 -902.125 239.8125 C-902.62279465 238.94294174 -902.62279465 238.94294174 -903.13064575 238.05581665 C-908.44927776 228.76071906 -913.68863941 219.42304945 -918.8894043 210.06152344 C-923.47556296 201.84263913 -928.25622372 193.74729777 -933.1784668 185.72509766 C-933.69578369 184.86835449 -934.21310059 184.01161133 -934.74609375 183.12890625 C-935.20685303 182.37681885 -935.6676123 181.62473145 -936.14233398 180.84985352 C-936.42536377 180.23940186 -936.70839355 179.6289502 -937 179 C-936.505 178.01 -936.505 178.01 -936 177 C-921.18044848 185.65152609 -906.38252846 194.33366973 -891.68115234 203.18505859 C-883.03686661 208.38694176 -874.36533952 213.54188452 -865.6875 218.6875 C-856.35466359 224.22214751 -847.03037305 229.76966136 -837.7331543 235.36401367 C-829.84069671 240.10733247 -821.91973734 244.8024373 -814 249.5 C-804.56357901 255.09717795 -795.13525866 260.70654263 -785.734375 266.36328125 C-777.84150884 271.10684154 -769.92014554 275.80219518 -762 280.5 C-753.32172419 285.64748696 -744.6456045 290.79773911 -736 296 C-727.45844166 301.13959076 -718.88663648 306.22753576 -710.3125 311.3125 C-700.69350063 317.0172067 -691.08425594 322.7370208 -681.5 328.5 C-667.83906408 336.71251036 -654.13365671 344.8496945 -640.41992188 352.97363281 C-637.6696265 354.60323387 -634.92051693 356.23480095 -632.171875 357.8671875 C-622.48225495 363.60823184 -612.70068137 369.18775738 -602.91699219 374.76635742 C-594.93085973 379.32052927 -586.95952583 383.89941721 -579 388.5 C-569.42860553 394.03106148 -559.83801876 399.52764291 -550.23654175 405.00622559 C-542.76424509 409.27048324 -535.30035234 413.54885806 -527.85009766 417.8515625 C-525.68270829 419.10313087 -523.5144334 420.35316718 -521.34521484 421.6015625 C-516.16183852 424.58590643 -510.99259433 427.59042938 -505.84765625 430.640625 C-504.88077881 431.20813477 -503.91390137 431.77564453 -502.91772461 432.36035156 C-501.10402419 433.42520094 -499.29586179 434.49956058 -497.49438477 435.58496094 C-496.69444092 436.05192383 -495.89449707 436.51888672 -495.0703125 437 C-494.37695801 437.4125 -493.68360352 437.825 -492.96923828 438.25 C-490.50660359 439.18791393 -489.42492144 438.96935076 -487 438 C-484.98866531 436.33921222 -483.12264893 434.67873165 -481.25 432.875 C-480.17252461 431.86128825 -479.09439995 430.84826617 -478.015625 429.8359375 C-477.49548828 429.34448242 -476.97535156 428.85302734 -476.43945312 428.34667969 C-474.6641789 426.68582273 -472.84186909 425.08648388 -471 423.5 C-467.60949283 420.56156045 -464.30028923 417.53888018 -461 414.5 C-457.09018405 410.89987244 -453.14133532 407.35582395 -449.125 403.875 C-446.38176582 401.45449925 -443.69115432 398.97799358 -441 396.5 C-437.09018405 392.89987244 -433.14133532 389.35582395 -429.125 385.875 C-426.38176582 383.45449925 -423.69115432 380.97799358 -421 378.5 C-417.09018405 374.89987244 -413.14133532 371.35582395 -409.125 367.875 C-406.38176506 365.45449858 -403.69118757 362.97795822 -401 360.5 C-397.04140277 356.8558306 -393.04823168 353.26086221 -388.984375 349.734375 C-384.94625309 346.20499286 -380.98085319 342.59365774 -377 339 C-375.33359149 337.49971321 -373.66692647 335.99971128 -372 334.5 C-371.175 333.7575 -370.35 333.015 -369.5 332.25 C-132 118.5 -132 118.5 -129.5078125 116.2578125 C-127.81407106 114.73291756 -126.12138831 113.20684598 -124.4296875 111.6796875 C-120.68435744 108.30087292 -116.93481793 104.93104035 -113.125 101.625 C-109.21005417 98.21520847 -105.38822604 94.70660037 -101.56738281 91.19238281 C-96.7445214 86.75802125 -91.87596508 82.3758661 -87 78 C-86.154375 77.236875 -85.30875 76.47375 -84.4375 75.6875 C-80.68998823 72.30559913 -76.93760068 68.93345513 -73.125 65.625 C-69.15747276 62.17148439 -65.2915236 58.6099606 -61.42236328 55.04736328 C-58.0355544 51.93414956 -54.60102456 48.88755462 -51.125 45.875 C-48.38176582 43.45449925 -45.69115432 40.97799358 -43 38.5 C-39.09018405 34.89987244 -35.14133532 31.35582395 -31.125 27.875 C-28.38176469 25.45449825 -25.69120421 22.97794054 -23 20.5 C-19.03125758 16.84693198 -15.0319432 13.23757495 -10.95703125 9.703125 C-7.27681098 6.50037841 -3.64214837 3.24589612 0 0 Z " fill="#2D2E4E" transform="translate(1002,931)"/>
<path d="M0 0 C0 3.27426042 -0.36354789 3.90750758 -2.13720703 6.50756836 C-2.60681854 7.20362686 -3.07643005 7.89968536 -3.56027222 8.61683655 C-4.33867966 9.74816261 -4.33867966 9.74816261 -5.1328125 10.90234375 C-5.6716507 11.69752914 -6.21048889 12.49271454 -6.76565552 13.31199646 C-7.91818101 15.01202897 -9.07357842 16.71011737 -10.23156738 18.40643311 C-12.5139692 21.75378246 -14.77633853 25.11441908 -17.03900146 28.47512817 C-18.77240758 31.04877502 -20.50879628 33.62038481 -22.24609375 36.19140625 C-32.2066101 50.93275338 -42.14935829 65.68496604 -52 80.5 C-61.11266003 94.20497122 -70.30830259 107.85297823 -79.51904297 121.4921875 C-87.43651426 133.21751703 -95.32630845 144.95992217 -103.15826416 156.74252319 C-111.51382122 169.30908689 -119.95962544 181.81434406 -128.40478516 194.32080078 C-135.9698732 205.52523585 -143.51616607 216.74112258 -151 228 C-159.07034509 240.14119518 -167.21601359 252.23072173 -175.375 264.3125 C-183.9543542 277.0168413 -192.51194668 289.73446171 -201 302.5 C-210.10866534 316.19890265 -219.29975583 329.84122568 -228.50695801 343.47406006 C-236.29089809 355.00050389 -244.04902615 366.54295996 -251.75 378.125 C-263.80122228 396.24290677 -275.96090055 414.28285671 -288.58496094 432.00830078 C-290.04443599 434.06254466 -291.49598001 436.12218306 -292.9453125 438.18359375 C-298.05740415 445.45289778 -303.21313038 452.68591687 -308.4375 459.875 C-312.94092371 466.07537574 -317.32108331 472.34713637 -321.625 478.6875 C-325.88605423 484.96444834 -330.24891026 491.13866566 -334.76831055 497.23168945 C-340.43397262 504.89363844 -345.84316153 512.73602425 -351.29199219 520.55273438 C-358.45446454 530.81525909 -365.7162014 541.00052451 -373.07226562 551.125 C-377.00261233 556.5590908 -380.80209193 562.07231616 -384.5625 567.625 C-389.07230422 574.28117078 -393.7559747 580.75913634 -398.62353516 587.15722656 C-402.51021771 592.28739141 -406.17474987 597.54295748 -409.79003906 602.86669922 C-413.22833834 607.91631836 -416.77841149 612.87462896 -420.375 617.8125 C-424.90193113 624.0324079 -429.30569295 630.32173285 -433.625 636.6875 C-437.88647636 642.96536989 -442.24925562 649.14096115 -446.77050781 655.23388672 C-451.18578972 661.20292887 -455.42353964 667.29140872 -459.66552734 673.38427734 C-463.57304129 678.98728385 -467.5428874 684.53948899 -471.5625 690.0625 C-476.02596463 696.19942511 -480.3632312 702.40892255 -484.625 708.6875 C-488.88660101 714.96528788 -493.24925211 721.14095642 -497.77050781 727.23388672 C-502.18578972 733.20292887 -506.42353964 739.29140872 -510.66552734 745.38427734 C-514.57304129 750.98728385 -518.5428874 756.53948899 -522.5625 762.0625 C-527.02596463 768.19942511 -531.3632312 774.40892255 -535.625 780.6875 C-539.88660101 786.96528788 -544.24925211 793.14095642 -548.77050781 799.23388672 C-553.18578972 805.20292887 -557.42353964 811.29140872 -561.66552734 817.38427734 C-565.57304129 822.98728385 -569.5428874 828.53948899 -573.5625 834.0625 C-578.02596463 840.19942511 -582.3632312 846.40892255 -586.625 852.6875 C-590.88660101 858.96528788 -595.24925211 865.14095642 -599.77050781 871.23388672 C-603.56463927 876.3631924 -607.22907075 881.57706344 -610.875 886.8125 C-615.92861982 894.0676353 -621.05330741 901.26471971 -626.24560547 908.42114258 C-629.86940662 913.4205338 -633.44876722 918.44883864 -637 923.5 C-641.71031332 930.19786616 -646.48316787 936.84807539 -651.28515625 943.48046875 C-654.53950783 947.9756882 -657.77984861 952.48022416 -661 957 C-666.40896409 964.58841632 -671.87017538 972.1388416 -677.33105469 979.68994141 C-678.96518299 981.95180829 -680.5963713 984.21576308 -682.2265625 986.48046875 C-688.35556602 994.99074544 -694.53647475 1003.45973614 -700.76928711 1011.89428711 C-704.71407149 1017.23835762 -708.61951467 1022.60909313 -712.5 1028 C-719.84003533 1038.19356463 -727.30454606 1048.29401627 -734.77050781 1058.39550781 C-736.53527575 1060.78393752 -738.29917839 1063.17300232 -740.0625 1065.5625 C-740.93467163 1066.74404663 -740.93467163 1066.74404663 -741.82446289 1067.94946289 C-745.17727252 1072.49987161 -748.49700322 1077.07206153 -751.79052734 1081.66552734 C-757.7147773 1089.92661549 -763.80415021 1098.04416265 -769.98779297 1106.11279297 C-774.38925914 1111.86304456 -778.72207428 1117.6573522 -783 1123.5 C-788.5864843 1131.1275004 -794.29276587 1138.65644889 -800.0390625 1146.1640625 C-804.42064465 1151.8990291 -808.7353507 1157.67765193 -813 1163.5 C-818.63502425 1171.19152595 -824.38182273 1178.79178645 -830.1730957 1186.36621094 C-834.20534116 1191.64069157 -838.21332645 1196.93164021 -842.1875 1202.25 C-847.24560319 1209.01451263 -852.36611746 1215.72948027 -857.50390625 1222.43359375 C-861.40946076 1227.53067337 -865.29812015 1232.64057446 -869.1875 1237.75 C-875.10242457 1245.51761582 -881.03836651 1253.26818864 -887 1261 C-888.66724548 1263.16622158 -890.33361339 1265.33311768 -892 1267.5 C-892.83331762 1268.58334542 -893.66665092 1269.66667878 -894.5 1270.75 C-894.9125 1271.28625 -895.325 1271.8225 -895.75 1272.375 C-897 1274 -898.25 1275.625 -899.5 1277.25 C-899.91217773 1277.78584717 -900.32435547 1278.32169434 -900.74902344 1278.8737793 C-901.5855491 1279.96123001 -902.42213803 1281.04863207 -903.25878906 1282.13598633 C-905.29379288 1284.78093787 -907.32756533 1287.42681112 -909.359375 1290.07421875 C-914.8209071 1297.18670418 -920.31762131 1304.27106606 -925.82714844 1311.34643555 C-929.23179904 1315.72060711 -932.6246586 1320.1031737 -936 1324.5 C-948.35207868 1340.58406961 -960.83192775 1356.57089718 -973.51782227 1372.39306641 C-976.88761757 1376.59945168 -980.23497268 1380.82260531 -983.5625 1385.0625 C-984.01383301 1385.63758301 -984.46516602 1386.21266602 -984.93017578 1386.80517578 C-987.18176335 1389.67633313 -989.42989571 1392.5501622 -991.67578125 1395.42578125 C-997.09760866 1402.35875489 -1002.5989893 1409.21963026 -1008.16357422 1416.03857422 C-1011.65507316 1420.3241126 -1015.0980478 1424.64311384 -1018.5 1429 C-1022.9820011 1434.74010668 -1027.55956557 1440.39693246 -1032.1640625 1446.0390625 C-1035.65530083 1450.32451618 -1039.09818888 1454.64329453 -1042.5 1459 C-1046.98037415 1464.73802304 -1051.5551921 1470.39371495 -1056.15966797 1476.0324707 C-1059.70111623 1480.37755126 -1063.18157626 1484.76448158 -1066.625 1489.1875 C-1070.586275 1494.27075463 -1074.68405505 1499.21173202 -1078.87548828 1504.10620117 C-1082.18840259 1507.99284398 -1085.36666367 1511.96760978 -1088.5 1516 C-1092.50081257 1521.14877299 -1096.63390989 1526.1535141 -1100.875 1531.10546875 C-1104.18791752 1534.99249981 -1107.36636556 1538.96746331 -1110.5 1543 C-1114.55268124 1548.21275583 -1118.72870691 1553.29493197 -1123.015625 1558.31640625 C-1125.88552676 1561.67829117 -1128.71070059 1565.07045214 -1131.5 1568.5 C-1134.80624074 1572.5633048 -1138.16816429 1576.57299309 -1141.5625 1580.5625 C-1145.43123672 1585.11145416 -1149.1977835 1589.72507098 -1152.90625 1594.40625 C-1155.85083084 1598.05401433 -1158.89451533 1601.6145398 -1161.93359375 1605.18359375 C-1164.67774533 1608.41424312 -1167.36747809 1611.67698054 -1170 1615 C-1174.85576425 1621.1216254 -1179.93552202 1627.05143994 -1185 1633 C-1186.87664318 1635.20694271 -1188.75166916 1637.41524496 -1190.625 1639.625 C-1191.08438965 1640.16688965 -1191.5437793 1640.7087793 -1192.01708984 1641.26708984 C-1194.85984806 1644.62874011 -1197.66101797 1648.02067616 -1200.4375 1651.4375 C-1203.89274457 1655.68392758 -1207.42706576 1659.85288424 -1211 1664 C-1216.09962052 1669.92120821 -1221.07736838 1675.93051872 -1226 1682 C-1227.68557747 1684.06407933 -1229.37413591 1686.12569712 -1231.0625 1688.1875 C-1231.81660156 1689.10917969 -1232.57070312 1690.03085938 -1233.34765625 1690.98046875 C-1234.16556641 1691.98013672 -1234.16556641 1691.98013672 -1235 1693 C-1236.28342759 1689.14971723 -1235.46675807 1687.77339377 -1234.11328125 1683.98046875 C-1233.6762085 1682.74707764 -1233.23913574 1681.51368652 -1232.78881836 1680.24291992 C-1232.29752269 1678.89081852 -1231.80539186 1677.53902034 -1231.3125 1676.1875 C-1230.80411435 1674.77775191 -1230.29573225 1673.36800254 -1229.78735352 1671.95825195 C-1216.16590454 1634.39380293 -1199.99852538 1597.74246365 -1183.51806641 1561.35839844 C-1181.47976009 1556.84908007 -1179.46043707 1552.33136777 -1177.44067383 1547.8137207 C-1171.08717837 1533.60578707 -1164.67319438 1519.42546232 -1158.25363159 1505.24728394 C-1152.78198691 1493.16175531 -1147.32897829 1481.06837108 -1141.90869141 1468.9597168 C-1137.40795572 1458.90591514 -1132.89458881 1448.85783968 -1128.375 1438.8125 C-1127.8096051 1437.55580002 -1127.8096051 1437.55580002 -1127.23278809 1436.27371216 C-1120.83047017 1422.04586618 -1114.40224564 1407.82982002 -1107.96697998 1393.61685181 C-1102.61380205 1381.79285724 -1097.28302168 1369.95939223 -1091.984375 1358.11083984 C-1088.8538108 1351.1170888 -1085.70541518 1344.13172702 -1082.54296875 1337.15234375 C-1081.95352478 1335.85143547 -1081.95352478 1335.85143547 -1081.35217285 1334.52424622 C-1079.71994171 1330.92225084 -1078.0876088 1327.3203016 -1076.45513916 1323.71841431 C-1070.87334353 1311.39878159 -1065.34701703 1299.05624471 -1059.875 1286.6875 C-1054.17227939 1273.79771104 -1048.33677267 1260.97428264 -1042.42770386 1248.17788696 C-1036.82517584 1236.04027409 -1031.34877913 1223.85181048 -1025.94287109 1211.62548828 C-1021.04242181 1200.54589755 -1016.05682937 1189.50906026 -1011 1178.5 C-1005.5817546 1166.70341006 -1000.25225181 1154.87142266 -995 1143 C-989.42453692 1130.39803779 -983.75154016 1117.84527225 -978 1105.32275391 C-972.91714447 1094.25116284 -967.92914505 1083.1408223 -963 1072 C-957.03621229 1058.52164626 -950.98168057 1045.08826821 -944.80224609 1031.70727539 C-941.59244304 1024.74598051 -938.44904303 1017.76887438 -935.45703125 1010.7109375 C-934.61251964 1008.74273405 -933.76645153 1006.77520641 -932.92001343 1004.80783081 C-932.15810123 1003.01537322 -931.42182311 1001.21208464 -930.68676758 999.40844727 C-927.15441318 991.20491175 -922.53200397 985.99517401 -916 980 C-914.79142602 978.66460772 -913.59926802 977.31380617 -912.4375 975.9375 C-909.21169721 972.16520827 -905.72727808 968.71063702 -902.1953125 965.2265625 C-899.55993257 962.55366826 -897.12233511 959.74631697 -894.6796875 956.8984375 C-892.47834607 954.41040974 -890.11911485 952.10805923 -887.75 949.78125 C-885.91757513 947.91610326 -884.20646865 945.98072254 -882.5 944 C-879.71760668 940.77043633 -876.78980571 937.76677347 -873.75 934.78125 C-871.91757513 932.91610326 -870.20646865 930.98072254 -868.5 929 C-866.2544206 926.39352391 -863.95448488 923.91065479 -861.5 921.5 C-859.06610268 919.10946833 -856.78644441 916.64953738 -854.5625 914.0625 C-851.52320349 910.53365237 -848.28983153 907.26994973 -844.97265625 904.00390625 C-842.42662171 901.41753849 -840.07978443 898.6846472 -837.71484375 895.93359375 C-835.4995262 893.43568444 -833.1310183 891.11975011 -830.75 888.78125 C-828.91757513 886.91610326 -827.20646865 884.98072254 -825.5 883 C-823.2544206 880.39352391 -820.95448488 877.91065479 -818.5 875.5 C-816.06610268 873.10946833 -813.78644441 870.64953738 -811.5625 868.0625 C-808.52320349 864.53365237 -805.28983153 861.26994973 -801.97265625 858.00390625 C-799.42662171 855.41753849 -797.07978443 852.6846472 -794.71484375 849.93359375 C-792.4995262 847.43568444 -790.1310183 845.11975011 -787.75 842.78125 C-785.91757513 840.91610326 -784.20646865 838.98072254 -782.5 837 C-780.2544206 834.39352391 -777.95448488 831.91065479 -775.5 829.5 C-773.06610268 827.10946833 -770.78644441 824.64953738 -768.5625 822.0625 C-765.52320349 818.53365237 -762.28983153 815.26994973 -758.97265625 812.00390625 C-756.42662171 809.41753849 -754.07978443 806.6846472 -751.71484375 803.93359375 C-749.4995262 801.43568444 -747.1310183 799.11975011 -744.75 796.78125 C-742.91757513 794.91610326 -741.20646865 792.98072254 -739.5 791 C-737.2544206 788.39352391 -734.95448488 785.91065479 -732.5 783.5 C-730.06610268 781.10946833 -727.78644441 778.64953738 -725.5625 776.0625 C-722.52320349 772.53365237 -719.28983153 769.26994973 -715.97265625 766.00390625 C-713.42662171 763.41753849 -711.07978443 760.6846472 -708.71484375 757.93359375 C-706.4995262 755.43568444 -704.1310183 753.11975011 -701.75 750.78125 C-699.91757513 748.91610326 -698.20646865 746.98072254 -696.5 745 C-694.2544206 742.39352391 -691.95448488 739.91065479 -689.5 737.5 C-687.06610268 735.10946833 -684.78644441 732.64953738 -682.5625 730.0625 C-679.52320349 726.53365237 -676.28983153 723.26994973 -672.97265625 720.00390625 C-670.42662171 717.41753849 -668.07978443 714.6846472 -665.71484375 711.93359375 C-663.4995262 709.43568444 -661.1310183 707.11975011 -658.75 704.78125 C-656.91757513 702.91610326 -655.20646865 700.98072254 -653.5 699 C-651.2544206 696.39352391 -648.95448488 693.91065479 -646.5 691.5 C-644.06610268 689.10946833 -641.78644441 686.64953738 -639.5625 684.0625 C-636.52320349 680.53365237 -633.28983153 677.26994973 -629.97265625 674.00390625 C-627.42662171 671.41753849 -625.07978443 668.6846472 -622.71484375 665.93359375 C-620.4995262 663.43568444 -618.1310183 661.11975011 -615.75 658.78125 C-613.91757513 656.91610326 -612.20646865 654.98072254 -610.5 653 C-608.2544206 650.39352391 -605.95448488 647.91065479 -603.5 645.5 C-601.06610268 643.10946833 -598.78644441 640.64953738 -596.5625 638.0625 C-593.52320349 634.53365237 -590.28983153 631.26994973 -586.97265625 628.00390625 C-584.42662171 625.41753849 -582.07978443 622.6846472 -579.71484375 619.93359375 C-577.49830603 617.43430862 -575.12837719 615.11718116 -572.74609375 612.77734375 C-570.93522357 610.93406426 -569.24678646 609.02177201 -567.5625 607.0625 C-564.52320349 603.53365237 -561.28983153 600.26994973 -557.97265625 597.00390625 C-555.42662171 594.41753849 -553.07978443 591.6846472 -550.71484375 588.93359375 C-548.4995262 586.43568444 -546.1310183 584.11975011 -543.75 581.78125 C-541.91757513 579.91610326 -540.20646865 577.98072254 -538.5 576 C-536.2544206 573.39352391 -533.95448488 570.91065479 -531.5 568.5 C-529.06610268 566.10946833 -526.78644441 563.64953738 -524.5625 561.0625 C-521.52320349 557.53365237 -518.28983153 554.26994973 -514.97265625 551.00390625 C-512.42662171 548.41753849 -510.07978443 545.6846472 -507.71484375 542.93359375 C-505.4995262 540.43568444 -503.1310183 538.11975011 -500.75 535.78125 C-498.91757513 533.91610326 -497.20646865 531.98072254 -495.5 530 C-493.2544206 527.39352391 -490.95448488 524.91065479 -488.5 522.5 C-486.06610268 520.10946833 -483.78644441 517.64953738 -481.5625 515.0625 C-478.52320349 511.53365237 -475.28983153 508.26994973 -471.97265625 505.00390625 C-469.42662171 502.41753849 -467.07978443 499.6846472 -464.71484375 496.93359375 C-462.4995262 494.43568444 -460.1310183 492.11975011 -457.75 489.78125 C-455.91757513 487.91610326 -454.20646865 485.98072254 -452.5 484 C-450.2544206 481.39352391 -447.95448488 478.91065479 -445.5 476.5 C-443.06610268 474.10946833 -440.78644441 471.64953738 -438.5625 469.0625 C-435.52320349 465.53365237 -432.28983153 462.26994973 -428.97265625 459.00390625 C-426.42662171 456.41753849 -424.07978443 453.6846472 -421.71484375 450.93359375 C-419.52934706 448.46930932 -417.19561525 446.18247688 -414.84545898 443.87670898 C-413.05661136 442.05756998 -411.38286727 440.18328381 -409.71875 438.25 C-406.23579679 434.2447877 -402.6433954 430.35909696 -399 426.5 C-397.67704698 425.0937842 -396.35413137 423.6875332 -395.03125 422.28125 C-394.36222656 421.57097656 -393.69320312 420.86070312 -393.00390625 420.12890625 C-389.83057535 416.75762878 -386.66554887 413.37858265 -383.5 410 C-382.25004336 408.66662602 -381.00004327 407.33329277 -379.75 406 C-379.13125 405.34 -378.5125 404.68 -377.875 404 C-372.25 398 -372.25 398 -370.37475586 395.99975586 C-369.125548 394.66725663 -367.87636178 393.33473712 -366.62719727 392.00219727 C-363.49025515 388.65593489 -360.35293042 385.31003281 -357.21484375 381.96484375 C-350.55691977 374.86672645 -343.90695163 367.76135412 -337.26928711 360.64428711 C-333.02004217 356.08943557 -328.76183843 351.54306813 -324.5 347 C-317.32001424 339.34573315 -310.15773818 331.67506765 -303 324 C-295.21350458 315.65073134 -287.41857228 307.30957989 -279.60791016 298.98291016 C-273.05944614 292.00025634 -266.52898077 285.00086645 -260 278 C-252.21350458 269.65073134 -244.41857228 261.30957989 -236.60791016 252.98291016 C-230.05944614 246.00025634 -223.52898077 239.00086645 -217 232 C-209.21350458 223.65073134 -201.41857228 215.30957989 -193.60791016 206.98291016 C-187.05944614 200.00025634 -180.52898077 193.00086645 -174 186 C-166.21350458 177.65073134 -158.41857228 169.30957989 -150.60791016 160.98291016 C-144.63907883 154.61832104 -138.68514139 148.2399076 -132.73388672 141.85888672 C-129.23943878 138.11251575 -125.74333722 134.36768783 -122.24755859 130.62255859 C-119.34289101 127.51058828 -116.43859902 124.39826936 -113.53515625 121.28515625 C-106.90287073 114.17486817 -100.26010298 107.07457688 -93.60791016 99.98291016 C-87.05944614 93.00025634 -80.52898077 86.00086645 -74 79 C-66.21350458 70.65073134 -58.41857228 62.30957989 -50.60791016 53.98291016 C-44.05944614 47.00025634 -37.52898077 40.00086645 -31 33 C-23.59090159 25.05540493 -16.17721568 17.11516578 -8.75 9.1875 C-8.10554932 8.49922119 -7.46109863 7.81094238 -6.79711914 7.10180664 C-6.19891357 6.46364014 -5.60070801 5.82547363 -4.984375 5.16796875 C-4.19111816 4.32141724 -4.19111816 4.32141724 -3.38183594 3.45776367 C-2.27271128 2.28769595 -1.14000351 1.14000351 0 0 Z " fill="#28283E" transform="translate(1933,119)"/>
<path d="M0 0 C0.8056842 0.00093658 1.61136841 0.00187317 2.44146729 0.00283813 C13.89244962 0.03175116 25.20853508 0.08129294 36.5 2.1875 C37.69713623 2.4055127 37.69713623 2.4055127 38.91845703 2.62792969 C79.25656882 10.26131741 116.77766167 27.57752463 146.5 56.1875 C147.04978516 56.70618652 147.59957031 57.22487305 148.16601562 57.75927734 C175.67318525 83.79654183 193.67136762 116.51998314 202.25 153.3125 C202.44875732 154.15772217 202.64751465 155.00294434 202.85229492 155.8737793 C205.89763277 169.62283355 206.88476021 183.27083492 206.8125 197.3125 C206.81034485 198.07340942 206.8081897 198.83431885 206.80596924 199.61828613 C206.56759548 252.34986755 185.70263058 301.34302623 148.75927734 338.95996094 C119.3330621 367.91752732 81.13728031 388.48136691 40.5 396.1875 C39.5565271 396.37221863 39.5565271 396.37221863 38.59399414 396.56066895 C26.32104916 398.91379482 14.36898732 399.66123736 1.88427734 399.57861328 C-0.99820234 399.56251004 -3.87928064 399.57858021 -6.76171875 399.59765625 C-22.6647604 399.61655032 -38.04718758 397.86956357 -53.375 393.5 C-54.28660889 393.2429126 -55.19821777 392.9858252 -56.13745117 392.72094727 C-80.57296547 385.63206001 -104.45829166 375.04587768 -124.5 359.1875 C-125.83998047 358.15882813 -125.83998047 358.15882813 -127.20703125 357.109375 C-170.29525073 323.4860025 -197.25442226 276.39986043 -205.05859375 222.31640625 C-208.89537841 185.93828914 -202.94815986 150.30472877 -187.5 117.1875 C-187.18981934 116.50429688 -186.87963867 115.82109375 -186.56005859 115.1171875 C-177.07916679 94.34044734 -163.0932882 75.77226895 -147.5 59.1875 C-146.96503906 58.5996875 -146.43007812 58.011875 -145.87890625 57.40625 C-140.07315025 51.26749552 -133.21400707 46.27700656 -126.5 41.1875 C-125.94425293 40.76033691 -125.38850586 40.33317383 -124.81591797 39.89306641 C-89.39963841 12.80379724 -44.19689402 -0.06604977 0 0 Z " fill="#27283D" transform="translate(382.5,580.8125)"/>
<path d="M0 0 C1.73636719 0.90492188 1.73636719 0.90492188 3.5078125 1.828125 C16.45893449 8.84946221 28.13363447 18.01183014 38.890625 28.046875 C40.80999971 29.82407381 42.78896997 31.46938452 44.8125 33.125 C78.74244784 62.88211151 100.0779562 112.58321036 103 157 C103.18574062 162.06235683 103.2456372 167.12213695 103.25 172.1875 C103.25067474 172.8941983 103.25134949 173.60089661 103.25204468 174.32901001 C103.16820193 229.90264747 80.5370765 280.91874662 41.75878906 320.27294922 C37.76474246 324.19492114 33.449202 327.61655201 29 331 C27.58267578 332.15822266 27.58267578 332.15822266 26.13671875 333.33984375 C-16.04235037 367.2653212 -71.81545437 380.60333857 -125.19702148 375.48681641 C-128.48574893 375.09554134 -131.73802444 374.57141714 -135 374 C-135.71526855 373.87641113 -136.43053711 373.75282227 -137.16748047 373.62548828 C-176.61727339 366.61275845 -212.9468113 349.72655908 -242 322 C-243.36791184 320.82503051 -244.74218146 319.65738887 -246.125 318.5 C-260.28562668 306.1204006 -270.7786425 290.22890007 -280 274 C-280.33596191 273.42378906 -280.67192383 272.84757812 -281.01806641 272.25390625 C-291.68880142 253.89878527 -298.56009611 233.70105188 -303 213 C-303.17789063 212.1745166 -303.35578125 211.3490332 -303.5390625 210.49853516 C-313.46624462 161.75882851 -301.52803842 108.08876118 -274.32421875 66.8203125 C-272.00103337 63.44856634 -269.53463496 60.21558167 -267 57 C-266.27425781 56.06542969 -265.54851563 55.13085938 -264.80078125 54.16796875 C-256.75796045 44.07473403 -248.08227099 34.10466267 -238 26 C-236.98550781 25.17113281 -235.97101563 24.34226562 -234.92578125 23.48828125 C-169.36618739 -29.48859967 -74.84648702 -40.16537891 0 0 Z " fill="#27283D" transform="translate(1115,359)"/>
</svg>
